Coordinates
version=1
nRows=26
nColumns=24
inDegrees=yes

Units are S.I. units (second, meters, Newtons, ...)
Angles are in degrees.

endheader
time	pelvis_tilt	pelvis_list	pelvis_rotation	pelvis_tx	pelvis_ty	pelvis_tz	hip_flexion_r	hip_adduction_r	hip_rotation_r	knee_angle_r	ankle_angle_r	subtalar_angle_r	mtp_angle_r	hip_flexion_l	hip_adduction_l	hip_rotation_l	knee_angle_l	ankle_angle_l	subtalar_angle_l	mtp_angle_l	lumbar_extension	lumbar_bending	lumbar_rotation
      1.14150000	     -4.79349596	      4.99830117	      0.03653531	      0.12291839	      0.99402703	      0.28748250	     28.19177802	     -5.27187453	     -1.66203367	    -70.91412982	     -2.53324905	    -14.56380552	     -0.19268841	     11.07078506	      9.76480513	      1.83805568	     -8.16145474	      0.79060702	    -10.43683742	      1.36584936	      0.35874935	     -2.81212130	      4.23506986
      1.14566667	     -4.76095511	      4.88153470	      0.05136677	      0.12798410	      0.99475370	      0.28739797	     28.65557989	     -5.10309722	     -1.59454710	    -70.52268674	     -1.82544950	    -14.78150989	     -0.31788104	     10.51870725	      9.65177801	      1.97648511	     -7.80767307	      0.84812399	    -10.46278818	      1.31325523	      0.27977797	     -2.66142274	      4.16969137
      1.14983333	     -4.76938905	      4.72727902	      0.07242647	      0.13305138	      0.99541295	      0.28732278	     29.13402343	     -4.89688324	     -1.54693262	    -70.04701507	     -1.14618643	    -14.93368235	     -0.36290377	     10.03002080	      9.49457115	      2.08245818	     -7.49192991	      0.91130421	    -10.44904524	      1.29112177	      0.26253099	     -2.45922031	      4.13370419
      1.15400000	     -4.71274769	      4.61743352	      0.09277922	      0.13811871	      0.99610388	      0.28724496	     29.52910491	     -4.74282770	     -1.48796190	    -69.53001299	     -0.44581704	    -15.13574872	     -0.54653204	      9.44490201	      9.38977118	      2.27003296	     -7.12135526	      0.94777860	    -10.55645309	      1.20691609	      0.15146677	     -2.34192388	      4.01544573
      1.15816667	     -4.72596562	      4.47287975	      0.11477110	      0.14315331	      0.99667013	      0.28717674	     29.97917694	     -4.54850395	     -1.43661524	    -68.94015695	      0.21961590	    -15.24219813	     -0.59331616	      8.97536939	      9.24164589	      2.38684339	     -6.82695503	      1.03828041	    -10.54375259	      1.18267540	      0.12216362	     -2.14003737	      3.98680330
      1.16233333	     -4.70678067	      4.34496909	      0.14017149	      0.14817959	      0.99722432	      0.28712198	     30.37419470	     -4.37387321	     -1.38073093	    -68.29594266	      0.90512606	    -15.35554290	     -0.65379047	      8.46853835	      9.11068827	      2.52649610	     -6.52598402	      1.12394519	    -10.56732373	      1.15060633	      0.05195254	     -1.99924322	      3.92547650
      1.16650000	     -4.65179413	      4.23550486	      0.16102819	      0.15324079	      0.99780146	      0.28703880	     30.70834120	     -4.23107024	     -1.33158058	    -67.59230668	      1.54540246	    -15.44582605	     -0.80671262	      7.89446660	      9.00318323	      2.71537057	     -6.16763823	      1.18216715	    -10.67351401	      1.07204020	     -0.06079323	     -1.85843488	      3.80529957
      1.17066667	     -4.62699671	      4.09880013	      0.18817972	      0.15827219	      0.99829862	      0.28697953	     31.04968318	     -4.05454442	     -1.28832454	    -66.81737826	      2.16554269	    -15.49679499	     -0.96691261	      7.37984033	      8.86164335	      2.87437919	     -5.85976311	      1.25774492	    -10.73313647	      0.98853319	     -0.13787307	     -1.68950252	      3.72666599
      1.17483333	     -4.65191724	      3.95458443	      0.21931860	      0.16329551	      0.99869185	      0.28694257	     31.42201336	     -3.86760288	     -1.24725570	    -65.97695317	      2.73886047	    -15.54720588	     -1.02057593	      6.94403288	      8.70777736	      2.98258228	     -5.60037261	      1.35557712	    -10.74348899	      0.95852439	     -0.13926851	     -1.51451536	      3.69308565
      1.17900000	     -4.61378672	      3.84963738	      0.24554310	      0.16832546	      0.99909958	      0.28688454	     31.71390629	     -3.73228400	     -1.20065625	    -65.10248589	      3.31626728	    -15.58197523	     -1.17105780	      6.40944648	      8.59871404	      3.15620593	     -5.27879144	      1.44242083	    -10.82567005	      0.87774529	     -0.23820746	     -1.38258353	      3.57935073
      1.18316667	     -4.64991843	      3.71202677	      0.28015496	      0.17333485	      0.99938808	      0.28685610	     32.05729733	     -3.55640798	     -1.16317599	    -64.15019767	      3.82807913	    -15.61996818	     -1.22292333	      5.99198902	      8.44943350	      3.26862346	     -5.02791353	      1.54704575	    -10.83575246	      0.84851189	     -0.23606184	     -1.21629768	      3.54504916
      1.18733333	     -4.60977788	      3.61188578	      0.30931723	      0.17835593	      0.99970830	      0.28682216	     32.30338072	     -3.42838241	     -1.12125862	    -63.16154309	      4.33333525	    -15.66177500	     -1.34733202	      5.46580201	      8.34094778	      3.42601237	     -4.72431145	      1.65156527	    -10.90352749	      0.78073362	     -0.33136272	     -1.09968901	      3.43691964
      1.19150000	     -4.66541533	      3.49470591	      0.34262995	      0.18334384	      0.99984895	      0.28680237	     32.63328390	     -3.27558656	     -1.07504387	    -62.11258115	      4.78149586	    -15.68978210	     -1.40286186	      5.07803660	      8.21194615	      3.53878194	     -4.48791739	      1.76208607	    -10.92062008	      0.74990153	     -0.31265349	     -0.95554783	      3.39582833
      1.19566667	     -4.68146581	      3.38743162	      0.37809109	      0.18834251	      1.00000985	      0.28679087	     32.89568446	     -3.13764799	     -1.03480911	    -61.00888452	      5.20430518	    -15.73222313	     -1.46127977	      4.63847775	      8.09152059	      3.66222278	     -4.23405109	      1.88215678	    -10.94218077	      0.71810386	     -0.34270279	     -0.82904412	      3.33294122
      1.19983333	     -4.63794227	      3.29867161	      0.40661640	      0.19336705	      1.00022121	      0.28677792	     33.06976970	     -3.02401703	     -0.99632260	    -59.85123357	      5.55304117	    -15.80013422	     -1.59373261	      4.11057588	      7.99017788	      3.80990153	     -3.93257209	      1.98987586	    -10.99798923	      0.64738975	     -0.44265308	     -0.72210953	      3.20586310
      1.20400000	     -4.64981695	      3.20495179	      0.44233787	      0.19835927	      1.00029875	      0.28677544	     33.28524907	     -2.90347130	     -0.95927670	    -58.64503222	      5.87425997	    -15.86330240	     -1.73980319	      3.66710447	      7.88216751	      3.93881780	     -3.67757076	      2.10685073	    -11.03451446	      0.56993500	     -0.47907244	     -0.61209705	      3.11906912
      1.20816667	     -4.70176741	      3.12404364	      0.47561292	      0.20333930	      1.00025782	      0.28678777	     33.53201768	     -2.79602069	     -0.91741709	    -57.40435778	      6.17078071	    -15.90357753	     -1.80504294	      3.28215185	      7.78594676	      4.02791562	     -3.45096002	      2.23123531	    -11.03195673	      0.53660118	     -0.46949772	     -0.51951042	      3.08102443
      1.21233333	     -4.73504099	      3.04102547	      0.51091821	      0.20833796	      1.00022563	      0.28679843	     33.72702360	     -2.68817202	     -0.88029837	    -56.10044764	      6.39855243	    -15.97248931	     -1.87673226	      2.87098916	      7.68650184	      4.12853669	     -3.21539592	      2.36256578	    -11.03124658	      0.50137334	     -0.47728470	     -0.41743530	      3.01932901
      1.21650000	     -4.74832232	      2.97592395	      0.54046915	      0.21333613	      1.00015211	      0.28682597	     33.88803052	     -2.60147900	     -0.84801440	    -54.76660857	      6.57416621	    -16.05535845	     -1.96030546	      2.43161323	      7.60432295	      4.22381439	     -2.96532867	      2.49561736	    -11.02849858	      0.46057891	     -0.51838393	     -0.34379619	      2.94309248
      1.22066667	     -4.77772700	      2.91222232	      0.57103363	      0.21833298	      1.00002262	      0.28685287	     34.04261803	     -2.51616058	     -0.81469967	    -53.38344811	      6.70164428	    -16.13575013	     -2.04086137	      2.01640629	      7.52323674	      4.30758374	     -2.72798134	      2.62965455	    -11.02033665	      0.42202470	     -0.53445287	     -0.26869080	      2.87580348
      1.22483333	     -4.80051441	      2.84963968	      0.59976105	      0.22334671	      0.99987584	      0.28689384	     34.16569257	     -2.43260385	     -0.78727783	    -51.95406359	      6.77302679	    -16.22410703	     -2.12648548	      1.59079099	      7.44124852	      4.38552851	     -2.48637752	      2.76568979	    -11.00358660	      0.38175435	     -0.55908172	     -0.19560571	      2.80631189
      1.22900000	     -4.83693268	      2.80512663	      0.62632788	      0.22835370	      0.99966072	      0.28693520	     34.28795465	     -2.36970112	     -0.75755547	    -50.49377212	      6.80019217	    -16.30356043	     -2.21127545	      1.18374670	      7.37919653	      4.45448054	     -2.25182793	      2.90269340	    -10.97987131	      0.34215832	     -0.56784548	     -0.14570467	      2.74139580
      1.23316667	     -4.86950223	      2.75570436	      0.65005320	      0.23337862	      0.99941279	      0.28698440	     34.38215601	     -2.30235946	     -0.73610136	    -48.99324897	      6.77639680	    -16.38104214	     -2.30030754	      0.77133498	      7.31075743	      4.51192466	     -2.01687741	      3.04433095	    -10.95007645	      0.30043049	     -0.58259470	     -0.08702231	      2.67691194
      1.23733333	     -4.87212666	      2.73592700	      0.66025044	      0.23839340	      0.99914609	      0.28705719	     34.43471988	     -2.25683814	     -0.69280026	    -47.47424716	      6.69387744	    -16.48934163	     -2.44592653	      0.32059110	      7.27283458	      4.56106446	     -1.77004516	      3.18888274	    -10.89670214	      0.22824721	     -0.64479157	     -0.06233297	      2.59289179
      1.24150000	     -4.91057743	      2.70592385	      0.67933287	      0.24342924	      0.99881287	      0.28712416	     34.49789082	     -2.21116766	     -0.67510756	    -45.91413727	      6.59450962	    -16.52126095	     -2.57797650	     -0.08013220	      7.22483057	      4.59427353	     -1.54866059	      3.33600772	    -10.84549844	      0.16046202	     -0.65174858	     -0.02548554	      2.54133766
      1.24566667	     -4.97769120	      2.66763958	      0.69781870	      0.24849917	      0.99840255	      0.28719027	     34.56997703	     -2.16351577	     -0.68215635	    -44.32715569	      6.49262704	    -16.49087262	     -2.65022049	     -0.45160034	      7.16858020	      4.60589177	     -1.32757148	      3.48685481	    -10.80765741	      0.12390954	     -0.60397553	      0.02250970	      2.51164847
